<svg t="1724576995238" class="icon" viewBox="0 0 1024 1024" version="1.1"
  xmlns="http://www.w3.org/2000/svg" p-id="1461" width="128" height="128">
  <path
    d="M470.380269 190.229249H74.865328C51.596648 190.229249 28.332016 215.46498 28.332016 247.01268 28.332016 278.558356 51.598672 297.486166 74.863304 297.486166H464.564111c29.080791 0 46.531289-25.235731 46.531288-50.473486C516.911557 215.46498 493.646925 190.229249 470.380269 190.229249z m-4.444079 268.142293H74.395826C51.361897 458.371542 28.332016 478.483225 28.332016 512c0 33.518798 23.031905 53.628458 46.06381 53.628458h385.78087C488.970119 565.628458 512 545.516775 512 512c0-33.518798-23.031905-53.628458-46.06381-53.628458z m4.444079 268.142292H74.865328C45.778466 726.513834 28.332016 753.328063 28.332016 780.142292S51.598672 833.770751 74.863304 833.770751H464.564111c29.080791 0 46.531289-26.814229 46.531288-53.628459 5.816158-33.518798-17.448474-53.628458-40.71513-53.628458z m95.361518-268.142292L783.912474 726.513834 995.667984 458.371542H565.741787z"
    fill="#2c2c2c" p-id="1462"></path>
</svg>