<svg t="1724565920274" class="icon" viewBox="0 0 1024 1024" version="1.1"
  xmlns="http://www.w3.org/2000/svg" p-id="9792" width="128" height="128"
  transform="scale(-1, 1)">
  <path
    d="M601.6 419.2H168l211.2-208c8-8 14.4-19.2 14.4-32s-4.8-24-14.4-32C360 128 336 128 316.8 145.6L32 425.6C12.8 444.8 12.8 468.8 32 488l284.8 278.4c19.2 19.2 43.2 19.2 62.4 0 19.2-19.2 19.2-43.2 0-60.8L168 500.8h433.6c172.8 0 324.8 134.4 324.8 302.4v43.2c0 24 16 43.2 40 43.2s40-19.2 40-43.2v-43.2c0-216-182.4-384-404.8-384z"
    fill="#2c2c2c" p-id="9793"></path>
</svg>