<svg t="1727451422836" class="icon" viewBox="0 0 1024 1024" version="1.1"
  xmlns="http://www.w3.org/2000/svg" p-id="4244" width="128" height="128">
  <path
    d="M960 543.573333v-43.946666l-3.882667-5.12a138.24 138.24 0 0 0-19.712-44.586667c2.816-9.6 4.394667-19.541333 4.906667-29.610667 0.768-26.794667-6.912-52.48-23.125333-76.629333 2.304-7.893333 3.84-16.085333 4.394666-24.32 1.834667-28.672-5.802667-56.576-22.698666-83.072 3.2-15.104 4.010667-30.592 2.602666-45.909333-4.181333-55.466667-38.784-99.2-92.373333-116.778667-25.728-8.405333-50.773333-9.813333-72.021333-9.813333h-93.866667c-33.237333 0-66.944 0.213333-100.693333 0.213333-53.034667 0-106.325333-0.213333-159.232-0.213333h-1.109334 0.128-247.296c-39.808 0-72.021333 32.213333-72.021333 72.021333v368c0 39.808 32.213333 71.978667 72.021333 71.978667H249.173333s55.893333 6.4 82.346667 48.512c18.346667 29.312 36.053333 60.202667 53.12 90.026666l22.016 38.058667c1.792 2.986667 2.602667 6.4 2.218667 9.898667-0.896 20.736-1.28 41.6-1.706667 61.696-0.213333 11.946667-0.512 24.234667-0.810667 36.224-0.981333 36.181333 16.810667 65.706667 49.92 83.114666a140.8 140.8 0 0 0 65.792 16.469334c19.498667 0 39.253333-4.096 58.88-12.288 25.514667-10.666667 43.52-29.781333 53.717334-56.789334l8.96-23.594666c8.234667-21.333333 16.64-43.434667 24.234666-65.621334 12.288-35.712 13.909333-74.88 5.12-119.808-2.602667-13.397333-4.906667-26.794667-7.125333-40.789333h21.589333l64.128 0.085333c29.184 0 58.666667 0 87.893334-0.170666h0.810666c16.768 0 33.493333-2.730667 49.493334-8.106667 23.594667-8.405333 54.272-28.416 66.56-76.714667l1.237333-4.010666 0.853333-2.986667 1.536-5.376z m-712.021333-39.594666H136.021333V135.978667h112.042667v368z m640 28.8c0 1.536-0.981333 3.541333-1.578667 5.632-4.608 18.090667-12.501333 23.466667-20.394667 26.368-8.405333 2.816-17.066667 4.224-25.898666 4.224h-0.426667l-0.469333-0.085334-0.512-0.128c-31.018667 0.213333-61.482667 0.298667-87.296 0.298667h-32.298667l-31.786667-0.085333h-106.24l13.653334 83.626666c2.56 15.872 4.864 29.354667 7.552 43.093334 6.314667 32.170667 5.546667 59.093333-2.474667 82.474666-6.997333 20.181333-14.421333 39.808-23.424 63.317334-3.072 7.978667-6.101333 16.085333-9.088 23.978666-3.584 9.6-8.106667 13.098667-14.08 15.701334-10.709333 4.522667-21.12 6.698667-31.146667 6.698666-11.093333 0-21.674667-2.688-32.384-8.277333a24.661333 24.661333 0 0 1-9.386666-7.68c-0.512-0.853333-2.133333-3.413333-1.92-9.642667 0.341333-11.52 0.64-22.997333 0.853333-36.778666v-1.706667c0.384-18.773333 0.768-38.314667 1.450667-57.173333a86.954667 86.954667 0 0 0-11.904-50.346667c-2.56-4.394667-5.077333-8.874667-7.68-13.269333-4.608-8.021333-9.386667-16.213333-13.909334-24.234667l-0.085333-0.085333-0.085333-0.085334-0.725334-1.109333c-17.194667-29.994667-34.986667-61.013333-53.674666-91.008l-0.128-0.213333-0.085334-0.170667c-16.64-26.325333-41.088-47.701333-71.509333-62.421333l-0.597333-387.712h63.914666c55.68 0 111.872 0.341333 159.402667 0.341333 16.981333 0 33.962667-0.128 50.773333-0.128 16.725333 0 33.28-0.213333 49.92-0.213333h93.866667c16.213333 0 33.536 0.938667 49.706667 6.229333 13.013333 4.181333 23.296 11.306667 30.634666 20.48 7.168 9.130667 11.264 20.224 12.288 33.28v0.64l0.085334 0.597333c0.810667 8.192 0.298667 16.298667-1.408 24.32l-0.768 3.413334h-8.704 8.704l-5.333334 25.173333 15.786667 25.002667c8.533333 13.397333 12.330667 26.282667 11.648 39.381333-0.213333 2.986667-0.853333 5.973333-1.621333 8.917333l-9.514667 32.298667 18.816 27.989333c7.594667 11.306667 11.093333 22.016 10.922667 33.493334-0.298667 4.266667-1.024 8.618667-2.218667 12.714666l-9.301333 32.426667 18.901333 27.861333c4.394667 6.4 7.509333 13.482667 9.301333 21.12l1.877334 7.765334v13.696z"
    fill="#2c2c2c" opacity=".65" p-id="4245"></path>
</svg>