<svg viewBox="0 0 1024 1024" xmlns="http://www.w3.org/2000/svg" width="256" height="256">
  <defs>
    <linearGradient id="grad1" x1="0%" y1="0%" x2="100%" y2="100%">
      <stop offset="0%" style="stop-color:#66BB6A;stop-opacity:1" />
      <stop offset="100%" style="stop-color:#388E3C;stop-opacity:1" />
    </linearGradient>
  </defs>
  <path
    d="M765.824 720.823c-5.819 8.345-3.77 19.827 4.576 25.644 8.346 5.819 19.827 3.769 25.644-4.576 43.643-62.605 75.647-131.586 95.12-205.029 15.557-58.674 23.186-120.282 22.673-183.114-0.874-107.076-24.889-180.07-25.91-183.125-2.492-7.449-9.433-12.498-17.287-12.575-199.248-1.971-300.88-89.66-335.367-127.328-2.113-2.334-11.395-11.595-26.168-12.458-7.541-0.44-19.046 1.279-30.982 11.978-0.433 0.388-0.847 0.796-1.241 1.224-103.628 112.286-268.575 125.93-334.683 126.585-8.156 0.081-15.288 5.516-17.528 13.359-0.391 1.367-9.637 34.113-15.561 87.593-5.436 49.086-8.964 125.85 5.102 212.801 15.846 97.954 50.309 188.583 102.431 269.369 65.026 100.787 157.743 186.253 275.575 254.022 2.367 1.361 5.007 2.18 7.728 2.395l2.536 0.201c0.486 0.039 0.971 0.058 1.455 0.058 3.215 0 6.382-0.841 9.183-2.452 56.915-32.734 109.072-69.931 155.028-110.561 5.285-4.143 71.256-55.185 119.226-61.7 10.081-1.369 17.141-10.651 15.772-20.731-1.37-10.082-10.658-17.153-20.731-15.772-59.843 8.127-134.42 67.152-137.567 69.662-0.247 0.196-0.488 0.4-0.723 0.609-42.012 37.19-89.508 71.43-141.282 101.857-108.7-63.886-194.369-143.504-254.728-236.758-49.371-76.277-82.106-161.936-97.296-254.597-21.17-129.138-1.976-236.591 6.096-272.801 85.77-2.565 163.191-20.509 230.32-53.404 57.494-28.174 94.758-61.107 116.05-84.027 3.262-2.784 4.12-2.197 4.929-1.45 21.057 22.973 58.261 56.281 116.138 84.86 67.584 33.373 145.643 51.531 232.218 54.04 6.54 24.322 19.805 82.867 20.429 159.429 0.486 59.544-6.729 117.874-21.444 173.371-18.817 70.842-49.008 135.912-90.182 195.975z"
    fill="url(#grad1)"></path>
  <path
    d="M277.446 278.461c9.709-3.034 15.121-13.365 12.087-23.075-3.034-9.71-13.364-15.12-23.076-12.087-20.204 6.314-47.7 9.003-47.969 9.029-8.19 0.779-14.871 6.898-16.367 14.988-0.582 3.151-14.075 78.313 2.344 178.759 1.477 9.034 9.291 15.451 18.156 15.451 0.986 0 1.988-0.08 2.994-0.245 10.04-1.641 16.848-11.11 15.206-21.15-11.474-70.196-7.225-128.02-4.311-152.934 7.671-17.389 23.572-20.192 37.367-24.503z"
    fill="url(#grad1)"></path>
</svg>